<?xml version="1.0" encoding="UTF-8"?>
<!DOCTYPE svg PUBLIC "-//W3C//DTD SVG 1.1//EN" "http://www.w3.org/Graphics/SVG/1.1/DTD/svg11.dtd">
<svg xmlns="http://www.w3.org/2000/svg" version="1.1" width="500px" height="500px" style="shape-rendering:geometricPrecision; text-rendering:geometricPrecision; image-rendering:optimizeQuality; fill-rule:evenodd; clip-rule:evenodd" xmlns:xlink="http://www.w3.org/1999/xlink">
<g><path style="opacity:1" fill="#fefefe" d="M -0.5,-0.5 C 166.167,-0.5 332.833,-0.5 499.5,-0.5C 499.5,166.167 499.5,332.833 499.5,499.5C 332.833,499.5 166.167,499.5 -0.5,499.5C -0.5,332.833 -0.5,166.167 -0.5,-0.5 Z"/></g>
<g><path style="opacity:1" fill="#3097d5" d="M 307.5,178.5 C 304.182,184.455 300.349,190.122 296,195.5C 295.51,196.793 295.343,198.127 295.5,199.5C 292.379,197.552 289.379,195.385 286.5,193C 293.38,187.946 300.38,183.113 307.5,178.5 Z"/></g>
<g><path style="opacity:1" fill="#3389d7" d="M 307.5,178.5 C 310.089,178.461 312.089,179.461 313.5,181.5C 308.015,187.979 303.349,194.979 299.5,202.5C 298.128,201.488 296.795,200.488 295.5,199.5C 295.343,198.127 295.51,196.793 296,195.5C 300.349,190.122 304.182,184.455 307.5,178.5 Z"/></g>
<g><path style="opacity:1" fill="#3b7cd9" d="M 313.5,181.5 C 315.795,182.475 317.795,183.808 319.5,185.5C 318.504,185.414 317.671,185.748 317,186.5C 312.669,192.99 308.169,199.324 303.5,205.5C 302.167,204.5 300.833,203.5 299.5,202.5C 303.349,194.979 308.015,187.979 313.5,181.5 Z"/></g>
<g><path style="opacity:1" fill="#4b6ddc" d="M 319.5,185.5 C 323.484,187.495 327.151,189.995 330.5,193C 323.833,198 317.167,203 310.5,208C 309.167,208.667 307.833,208.667 306.5,208C 305.627,206.955 304.627,206.122 303.5,205.5C 308.169,199.324 312.669,192.99 317,186.5C 317.671,185.748 318.504,185.414 319.5,185.5 Z"/></g>
<g><path style="opacity:1" fill="#459ed9" d="M 292.5,201.5 C 287.39,205.613 285.056,210.946 285.5,217.5C 284.345,210.345 284.178,203.012 285,195.5C 287.688,197.364 290.188,199.364 292.5,201.5 Z"/></g>
<g><path style="opacity:1" fill="#6648e3" d="M 331.5,196.5 C 332.655,203.655 332.822,210.988 332,218.5C 325,223.5 318,228.5 311,233.5C 310.503,231.19 310.337,228.857 310.5,226.5C 318.271,217.058 325.271,207.058 331.5,196.5 Z"/></g>
<g><path style="opacity:1" fill="#3586d7" d="M 292.5,201.5 C 294.909,202.701 296.909,204.367 298.5,206.5C 295.922,210.646 293.089,214.646 290,218.5C 289.517,219.448 289.351,220.448 289.5,221.5C 287.833,220.5 286.5,219.167 285.5,217.5C 285.056,210.946 287.39,205.613 292.5,201.5 Z"/></g>
<g><path style="opacity:1" fill="#5b56e0" d="M 331.5,196.5 C 325.271,207.058 318.271,217.058 310.5,226.5C 310.334,221.489 310.501,216.489 311,211.5C 317.952,206.613 324.785,201.613 331.5,196.5 Z"/></g>
<g><path style="opacity:1" fill="#4473db" d="M 298.5,206.5 C 301.37,207.433 303.704,209.1 305.5,211.5C 302.248,216.334 299.248,221.334 296.5,226.5C 294.343,224.588 292.009,222.921 289.5,221.5C 289.351,220.448 289.517,219.448 290,218.5C 293.089,214.646 295.922,210.646 298.5,206.5 Z"/></g>
<g><path style="opacity:1" fill="#5f6de0" d="M 305.5,211.5 C 306.822,214.768 307.489,218.435 307.5,222.5C 307.167,226.167 306.833,229.833 306.5,233.5C 303.138,231.157 299.804,228.824 296.5,226.5C 299.248,221.334 302.248,216.334 305.5,211.5 Z"/></g>
<g><path style="opacity:1" fill="#b3e3ff" d="M 309.5,243.5 C 319.653,242.506 329.986,242.172 340.5,242.5C 340.806,245.385 340.473,248.052 339.5,250.5C 339.5,248.167 339.5,245.833 339.5,243.5C 329.5,243.5 319.5,243.5 309.5,243.5 Z"/></g>
<g><path style="opacity:1" fill="#44b8ff" d="M 173.5,242.5 C 184.463,241.147 192.463,245.314 197.5,255C 191.911,256.24 186.911,255.24 182.5,252C 177.109,250.347 172.942,251.847 170,256.5C 169.333,260.167 169.333,263.833 170,267.5C 174.846,274.834 180.346,275.334 186.5,269C 199.09,266.535 200.757,269.535 191.5,278C 177.656,285.275 167.156,282.109 160,268.5C 157.388,256.055 161.888,247.389 173.5,242.5 Z"/></g>
<g><path style="opacity:1" fill="#43b8ff" d="M 211.5,242.5 C 216.716,242.134 221.716,242.968 226.5,245C 229.62,247.408 230.953,250.574 230.5,254.5C 227.102,254.82 223.768,254.487 220.5,253.5C 218.912,250.743 216.579,249.91 213.5,251C 211.972,253.881 212.638,256.214 215.5,258C 219.608,259.027 223.608,260.36 227.5,262C 233.226,268.602 232.559,274.602 225.5,280C 220.589,281.492 215.589,281.826 210.5,281C 205.244,278.995 202.578,275.161 202.5,269.5C 205.898,269.18 209.232,269.513 212.5,270.5C 214.416,274.917 217.249,275.584 221,272.5C 221.72,270.888 221.554,269.388 220.5,268C 215.42,266.196 210.42,264.196 205.5,262C 200.157,253.232 202.157,246.732 211.5,242.5 Z"/></g>
<g><path style="opacity:1" fill="#42b8ff" d="M 238.5,242.5 C 241.898,242.18 245.232,242.513 248.5,243.5C 253.333,251.167 258.167,258.833 263,266.5C 263.5,258.507 263.666,250.507 263.5,242.5C 266.5,242.5 269.5,242.5 272.5,242.5C 272.5,255.5 272.5,268.5 272.5,281.5C 269.482,281.665 266.482,281.498 263.5,281C 258.79,273.747 253.957,266.58 249,259.5C 248.5,266.826 248.334,274.159 248.5,281.5C 245.167,281.5 241.833,281.5 238.5,281.5C 238.5,268.5 238.5,255.5 238.5,242.5 Z"/></g>
<g><path style="opacity:1" fill="#41b8ff" d="M 281.5,242.5 C 289.167,242.5 296.833,242.5 304.5,242.5C 304.5,245.167 304.5,247.833 304.5,250.5C 299.833,250.5 295.167,250.5 290.5,250.5C 290.5,253.167 290.5,255.833 290.5,258.5C 294.5,258.5 298.5,258.5 302.5,258.5C 302.5,260.833 302.5,263.167 302.5,265.5C 298.5,265.5 294.5,265.5 290.5,265.5C 290.5,268.5 290.5,271.5 290.5,274.5C 295.167,274.5 299.833,274.5 304.5,274.5C 304.5,276.833 304.5,279.167 304.5,281.5C 296.833,281.5 289.167,281.5 281.5,281.5C 281.5,268.5 281.5,255.5 281.5,242.5 Z"/></g>
<g><path style="opacity:1" fill="#3bb6ff" d="M 309.5,243.5 C 319.5,243.5 329.5,243.5 339.5,243.5C 339.5,245.833 339.5,248.167 339.5,250.5C 336.167,250.5 332.833,250.5 329.5,250.5C 329.5,260.833 329.5,271.167 329.5,281.5C 326.5,281.5 323.5,281.5 320.5,281.5C 320.5,271.167 320.5,260.833 320.5,250.5C 316.833,250.5 313.167,250.5 309.5,250.5C 309.5,248.167 309.5,245.833 309.5,243.5 Z"/></g>
</svg>
